<svg xmlns="http://www.w3.org/2000/svg" viewBox="0 0 64 64" width="128px" height="128px"><linearGradient id="LV5smRsLql7A2XcULm5Vta" x1="-181.698" x2="-162.123" y1="-32.002" y2="-32.002" gradientTransform="matrix(0 1 1 0 64 202)" gradientUnits="userSpaceOnUse" spreadMethod="reflect"><stop offset="0" stop-color="#1a6dff"/><stop offset="1" stop-color="#c822ff"/></linearGradient><path fill="url(#LV5smRsLql7A2XcULm5Vta)" d="M4,33v-6c0-1.103,0.908-2,2.024-2H44v-3.017c0-0.719,0.386-1.361,1.031-1.718 c0.671-0.371,1.487-0.349,2.132,0.056l11.455,7.192c0.862,0.542,1.377,1.473,1.377,2.491c0,1.016-0.514,1.945-1.373,2.485 L47.16,39.682c-0.643,0.404-1.459,0.426-2.129,0.056c-0.646-0.357-1.031-1-1.031-1.719V35H6.024C4.908,35,4,34.103,4,33z M46,26v1 H6.024L6,33h40v4.986c0.021,0.011,0.06,0.024,0.097,0l11.462-7.192c0.394-0.248,0.437-0.636,0.437-0.792 c0-0.157-0.043-0.547-0.44-0.797L46.1,22.014c-0.053-0.033-0.108,0.004-0.114,0.01L46,26z"/><linearGradient id="LV5smRsLql7A2XcULm5Vtb" x1="-175.833" x2="-168.086" y1="-32.995" y2="-32.995" gradientTransform="matrix(0 1 1 0 64 202)" gradientUnits="userSpaceOnUse" spreadMethod="reflect"><stop offset="0" stop-color="#6dc7ff"/><stop offset="1" stop-color="#e6abff"/></linearGradient><path fill="url(#LV5smRsLql7A2XcULm5Vtb)" d="M48,31H8v-2h40v-2.492c0-0.39,0.421-0.634,0.759-0.441l4.749,3.069 c0.669,0.382,0.669,1.347,0,1.728l-4.75,3.075C48.42,34.133,48,33.889,48,33.5V31z"/></svg>