<?xml version="1.0" encoding="utf-8"?>
<svg xmlns="http://www.w3.org/2000/svg" width="500.5px" height="60.00498046875px" viewBox="-155.25 40.0024902343750028 810.5 30.00498046875" style="background: rgba(0, 0, 0, 0);">
<defs>
<linearGradient id="editing-gradient-gradient" x1="0" x2="1" y1="0.5" y2="0.5" gradientUnits="objectBoundingBox">
<stop offset="0" stop-color="#f0f"/>
<stop offset="1" stop-color="#00ffff"/>
</linearGradient>
</defs>
<g>
<g transform="translate(-39.92000126838684, 70.39999961853027)">
<path d="M26.37-3.97L26.37-3.97L28.22-4.16L28.35-0.38L28.35-0.38Q21.06 0.64 15.87 0.64L15.87 0.64L15.87 0.64Q8.96 0.64 6.08-3.36L6.08-3.36L6.08-3.36Q3.20-7.36 3.20-15.81L3.20-15.81L3.20-15.81Q3.20-32.64 16.58-32.64L16.58-32.64L16.58-32.64Q23.04-32.64 26.24-29.02L26.24-29.02L26.24-29.02Q29.44-25.41 29.44-17.66L29.44-17.66L29.18-14.02L8.06-14.02L8.06-14.02Q8.06-8.70 9.98-6.14L9.98-6.14L9.98-6.14Q11.90-3.58 16.67-3.58L16.67-3.58L16.67-3.58Q21.44-3.58 26.37-3.97ZM8-17.86L24.64-17.86L24.64-17.86Q24.64-23.74 22.75-26.18L22.75-26.18L22.75-26.18Q20.86-28.61 16.61-28.61L16.61-28.61L16.61-28.61Q12.35-28.61 10.21-26.05L10.21-26.05L10.21-26.05Q8.06-23.49 8-17.86L8-17.86ZM41.73-25.98L41.73 0L36.93 0L36.93-32L41.66-32L41.66-29.76L41.66-29.76Q46.85-32.64 51.58-32.64L51.58-32.64L51.58-32.64Q57.98-32.64 60.19-29.18L60.19-29.18L60.19-29.18Q62.40-25.73 62.40-16.90L62.40-16.90L62.40 0L57.66 0L57.66-16.77L57.66-16.77Q57.66-23.42 56.35-25.89L56.35-25.89L56.35-25.89Q55.04-28.35 50.75-28.35L50.75-28.35L50.75-28.35Q48.70-28.35 46.43-27.74L46.43-27.74L46.43-27.74Q44.16-27.14 42.94-26.56L42.94-26.56L41.73-25.98ZM76.10-26.43L76.10 0L71.30 0L71.30-45.95L76.10-45.95L76.10-30.21L76.10-30.21Q81.22-32.64 85.95-32.64L85.95-32.64L85.95-32.64Q92.35-32.64 94.56-29.18L94.56-29.18L94.56-29.18Q96.77-25.73 96.77-16.90L96.77-16.90L96.77 0L91.97 0L91.97-16.77L91.97-16.77Q91.97-23.42 90.66-25.89L90.66-25.89L90.66-25.89Q89.34-28.35 85.12-28.35L85.12-28.35L85.12-28.35Q81.09-28.35 77.31-26.88L77.31-26.88L76.10-26.43ZM128.26-22.34L128.26-22.34L128.26-5.95L128.26-5.95Q128.45-3.58 131.97-3.14L131.97-3.14L131.78 0.64L131.78 0.64Q126.72 0.64 124.16-1.92L124.16-1.92L124.16-1.92Q118.40 0.64 112.64 0.64L112.64 0.64L112.64 0.64Q108.22 0.64 105.92-1.86L105.92-1.86L105.92-1.86Q103.62-4.35 103.62-9.02L103.62-9.02L103.62-9.02Q103.62-13.70 105.98-15.90L105.98-15.90L105.98-15.90Q108.35-18.11 113.41-18.62L113.41-18.62L123.46-19.58L123.46-22.34L123.46-22.34Q123.46-25.60 122.05-27.01L122.05-27.01L122.05-27.01Q120.64-28.42 118.21-28.42L118.21-28.42L118.21-28.42Q113.09-28.42 107.58-27.78L107.58-27.78L105.60-27.58L105.41-31.23L105.41-31.23Q112.45-32.64 117.89-32.64L117.89-32.64L117.89-32.64Q123.33-32.64 125.79-30.14L125.79-30.14L125.79-30.14Q128.26-27.65 128.26-22.34ZM108.54-9.28L108.54-9.28L108.54-9.28Q108.54-3.39 113.41-3.39L113.41-3.39L113.41-3.39Q117.76-3.39 121.98-4.86L121.98-4.86L123.46-5.38L123.46-15.94L113.98-15.04L113.98-15.04Q111.10-14.78 109.82-13.38L109.82-13.38L109.82-13.38Q108.54-11.97 108.54-9.28ZM142.53-25.98L142.53 0L137.73 0L137.73-32L142.46-32L142.46-29.76L142.46-29.76Q147.65-32.64 152.38-32.64L152.38-32.64L152.38-32.64Q158.78-32.64 160.99-29.18L160.99-29.18L160.99-29.18Q163.20-25.73 163.20-16.90L163.20-16.90L163.20 0L158.46 0L158.46-16.77L158.46-16.77Q158.46-23.42 157.15-25.89L157.15-25.89L157.15-25.89Q155.84-28.35 151.55-28.35L151.55-28.35L151.55-28.35Q149.50-28.35 147.23-27.74L147.23-27.74L147.23-27.74Q144.96-27.14 143.74-26.56L143.74-26.56L142.53-25.98ZM184.06-32.64L184.06-32.64L184.06-32.64Q186.18-32.64 191.23-31.87L191.23-31.87L192.77-31.68L192.58-27.78L192.58-27.78Q187.46-28.35 185.02-28.35L185.02-28.35L185.02-28.35Q179.58-28.35 177.63-25.76L177.63-25.76L177.63-25.76Q175.68-23.17 175.68-16.16L175.68-16.16L175.68-16.16Q175.68-9.15 177.50-6.40L177.50-6.40L177.50-6.40Q179.33-3.65 185.09-3.65L185.09-3.65L192.64-4.22L192.83-0.26L192.83-0.26Q186.88 0.64 183.94 0.64L183.94 0.64L183.94 0.64Q176.45 0.64 173.60-3.20L173.60-3.20L173.60-3.20Q170.75-7.04 170.75-16.16L170.75-16.16L170.75-16.16Q170.75-25.28 173.82-28.96L173.82-28.96L173.82-28.96Q176.90-32.64 184.06-32.64ZM221.38-3.97L221.38-3.97L223.23-4.16L223.36-0.38L223.36-0.38Q216.06 0.64 210.88 0.64L210.88 0.64L210.88 0.64Q203.97 0.64 201.09-3.36L201.09-3.36L201.09-3.36Q198.21-7.36 198.21-15.81L198.21-15.81L198.21-15.81Q198.21-32.64 211.58-32.64L211.58-32.64L211.58-32.64Q218.05-32.64 221.25-29.02L221.25-29.02L221.25-29.02Q224.45-25.41 224.45-17.66L224.45-17.66L224.19-14.02L203.07-14.02L203.07-14.02Q203.07-8.70 204.99-6.14L204.99-6.14L204.99-6.14Q206.91-3.58 211.68-3.58L211.68-3.58L211.68-3.58Q216.45-3.58 221.38-3.97ZM203.01-17.86L219.65-17.86L219.65-17.86Q219.65-23.74 217.76-26.18L217.76-26.18L217.76-26.18Q215.87-28.61 211.62-28.61L211.62-28.61L211.62-28.61Q207.36-28.61 205.22-26.05L205.22-26.05L205.22-26.05Q203.07-23.49 203.01-17.86L203.01-17.86ZM251.78-45.95L256.51-45.95L256.51 0L251.78 0L251.78-2.18L251.78-2.18Q246.85 0.64 242.05 0.64L242.05 0.64L242.05 0.64Q239.49 0.64 237.57 0L237.57 0L237.57 0Q235.65-0.64 233.98-2.30L233.98-2.30L233.98-2.30Q230.53-5.76 230.53-15.07L230.53-15.07L230.53-15.07Q230.53-24.38 233.63-28.51L233.63-28.51L233.63-28.51Q236.74-32.64 243.90-32.64L243.90-32.64L243.90-32.64Q247.62-32.64 251.78-31.81L251.78-31.81L251.78-45.95ZM237.70-5.76L237.70-5.76Q238.72-4.54 239.87-4.10L239.87-4.10L239.87-4.10Q241.02-3.65 242.85-3.65L242.85-3.65L242.85-3.65Q244.67-3.65 246.94-4.26L246.94-4.26L246.94-4.26Q249.22-4.86 250.50-5.44L250.50-5.44L251.78-6.02L251.78-27.71L251.78-27.71Q247.68-28.48 244.16-28.48L244.16-28.48L244.16-28.48Q239.30-28.48 237.38-25.38L237.38-25.38L237.38-25.38Q235.46-22.27 235.46-15.74L235.46-15.74L235.46-15.74Q235.46-8.32 237.70-5.76L237.70-5.76ZM284.93-15.36L265.54-15.36L265.54-19.84L284.93-19.84L284.93-15.36ZM303.87-28.35L303.87-28.35L303.87-28.35Q296.90-28.35 296.90-23.49L296.90-23.49L296.90-23.49Q296.90-21.25 298.50-20.32L298.50-20.32L298.50-20.32Q300.10-19.39 305.79-18.40L305.79-18.40L305.79-18.40Q311.49-17.41 313.86-15.62L313.86-15.62L313.86-15.62Q316.22-13.82 316.22-8.90L316.22-8.90L316.22-8.90Q316.22-3.97 313.06-1.66L313.06-1.66L313.06-1.66Q309.89 0.64 303.81 0.64L303.81 0.64L303.81 0.64Q299.84 0.64 294.46-0.26L294.46-0.26L292.54-0.58L292.80-4.74L292.80-4.74Q300.10-3.65 303.81-3.65L303.81-3.65L303.81-3.65Q307.52-3.65 309.47-4.83L309.47-4.83L309.47-4.83Q311.42-6.02 311.42-8.80L311.42-8.80L311.42-8.80Q311.42-11.58 309.76-12.58L309.76-12.58L309.76-12.58Q308.10-13.57 302.46-14.46L302.46-14.46L302.46-14.46Q296.83-15.36 294.46-17.09L294.46-17.09L294.46-17.09Q292.10-18.82 292.10-23.49L292.10-23.49L292.10-23.49Q292.10-28.16 295.39-30.40L295.39-30.40L295.39-30.40Q298.69-32.64 303.62-32.64L303.62-32.64L303.62-32.64Q307.52-32.64 313.41-31.74L313.41-31.74L315.20-31.42L315.07-27.33L315.07-27.33Q307.97-28.35 303.87-28.35ZM328.38 14.21L323.58 14.21L323.58-32L328.32-32L328.32-29.70L328.32-29.70Q333.18-32.64 337.92-32.64L337.92-32.64L337.92-32.64Q344-32.64 346.75-28.77L346.75-28.77L346.75-28.77Q349.50-24.90 349.50-16L349.50-16L349.50-16Q349.50-7.10 346.27-3.23L346.27-3.23L346.27-3.23Q343.04 0.64 335.55 0.64L335.55 0.64L335.55 0.64Q331.65 0.64 328.38-0.06L328.38-0.06L328.38 14.21ZM337.22-28.35L337.22-28.35L337.22-28.35Q335.30-28.35 333.09-27.71L333.09-27.71L333.09-27.71Q330.88-27.07 329.60-26.43L329.60-26.43L328.38-25.79L328.38-4.22L328.38-4.22Q332.93-3.52 335.30-3.52L335.30-3.52L335.30-3.52Q340.48-3.52 342.56-6.46L342.56-6.46L342.56-6.46Q344.64-9.41 344.64-16.06L344.64-16.06L344.64-16.06Q344.64-22.72 342.75-25.54L342.75-25.54L342.75-25.54Q340.86-28.35 337.22-28.35ZM355.90-16.06L355.90-16.06L355.90-16.06Q355.90-24.83 359.04-28.74L359.04-28.74L359.04-28.74Q362.18-32.64 369.63-32.64L369.63-32.64L369.63-32.64Q377.09-32.64 380.19-28.74L380.19-28.74L380.19-28.74Q383.30-24.83 383.30-16.06L383.30-16.06L383.30-16.06Q383.30-7.30 380.35-3.33L380.35-3.33L380.35-3.33Q377.41 0.64 369.60 0.64L369.60 0.64L369.60 0.64Q361.79 0.64 358.85-3.33L358.85-3.33L358.85-3.33Q355.90-7.30 355.90-16.06ZM360.83-16.16L360.83-16.16L360.83-16.16Q360.83-9.15 362.53-6.34L362.53-6.34L362.53-6.34Q364.22-3.52 369.63-3.52L369.63-3.52L369.63-3.52Q375.04-3.52 376.70-6.30L376.70-6.30L376.70-6.30Q378.37-9.09 378.37-16.13L378.37-16.13L378.37-16.13Q378.37-23.17 376.51-25.82L376.51-25.82L376.51-25.82Q374.66-28.48 369.63-28.48L369.63-28.48L369.63-28.48Q364.61-28.48 362.72-25.82L362.72-25.82L362.72-25.82Q360.83-23.17 360.83-16.16ZM407.42-32L407.42-27.84L397.25-27.84L397.25-12.54L397.25-12.54Q397.25-7.04 398.05-5.31L398.05-5.31L398.05-5.31Q398.85-3.58 401.86-3.58L401.86-3.58L407.55-3.97L407.87 0L407.87 0Q403.58 0.70 401.34 0.70L401.34 0.70L401.34 0.70Q396.35 0.70 394.43-1.73L394.43-1.73L394.43-1.73Q392.51-4.16 392.51-11.01L392.51-11.01L392.51-27.84L387.97-27.84L387.97-32L392.51-32L392.51-41.79L397.25-41.79L397.25-32L407.42-32ZM418.11 0L413.31 0L413.31-32L418.11-32L418.11 0ZM418.11-39.23L413.31-39.23L413.31-44.80L418.11-44.80L418.11-39.23ZM442.75-27.84L433.47-27.84L433.47 0L428.67 0L428.67-27.84L424.64-27.84L424.64-32L428.67-32L428.67-34.88L428.67-34.88Q428.67-41.66 430.59-44.13L430.59-44.13L430.59-44.13Q432.51-46.59 437.31-46.59L437.31-46.59L443.78-46.14L443.71-42.18L443.71-42.18Q440.13-42.30 437.79-42.30L437.79-42.30L437.79-42.30Q435.46-42.30 434.46-40.77L434.46-40.77L434.46-40.77Q433.47-39.23 433.47-34.82L433.47-34.82L433.47-32L442.75-32L442.75-27.84ZM454.59 0L445.50-32L450.30-32L458.30-4.16L460.42-4.16L468.48-32L473.28-32L459.97 14.21L455.17 14.21L459.33 0L454.59 0ZM497.66-15.36L478.27-15.36L478.27-19.84L497.66-19.84L497.66-15.36ZM528.64-22.34L528.64-22.34L528.64-5.95L528.64-5.95Q528.83-3.58 532.35-3.14L532.35-3.14L532.16 0.64L532.16 0.64Q527.10 0.64 524.54-1.92L524.54-1.92L524.54-1.92Q518.78 0.64 513.02 0.64L513.02 0.64L513.02 0.64Q508.61 0.64 506.30-1.86L506.30-1.86L506.30-1.86Q504-4.35 504-9.02L504-9.02L504-9.02Q504-13.70 506.37-15.90L506.37-15.90L506.37-15.90Q508.74-18.11 513.79-18.62L513.79-18.62L523.84-19.58L523.84-22.34L523.84-22.34Q523.84-25.60 522.43-27.01L522.43-27.01L522.43-27.01Q521.02-28.42 518.59-28.42L518.59-28.42L518.59-28.42Q513.47-28.42 507.97-27.78L507.97-27.78L505.98-27.58L505.79-31.23L505.79-31.23Q512.83-32.64 518.27-32.64L518.27-32.64L518.27-32.64Q523.71-32.64 526.18-30.14L526.18-30.14L526.18-30.14Q528.64-27.65 528.64-22.34ZM508.93-9.28L508.93-9.28L508.93-9.28Q508.93-3.39 513.79-3.39L513.79-3.39L513.79-3.39Q518.14-3.39 522.37-4.86L522.37-4.86L523.84-5.38L523.84-15.94L514.37-15.04L514.37-15.04Q511.49-14.78 510.21-13.38L510.21-13.38L510.21-13.38Q508.93-11.97 508.93-9.28ZM542.91 14.21L538.11 14.21L538.11-32L542.85-32L542.85-29.70L542.85-29.70Q547.71-32.64 552.45-32.64L552.45-32.64L552.45-32.64Q558.53-32.64 561.28-28.77L561.28-28.77L561.28-28.77Q564.03-24.90 564.03-16L564.03-16L564.03-16Q564.03-7.10 560.80-3.23L560.80-3.23L560.80-3.23Q557.57 0.64 550.08 0.64L550.08 0.64L550.08 0.64Q546.18 0.64 542.91-0.06L542.91-0.06L542.91 14.21ZM551.74-28.35L551.74-28.35L551.74-28.35Q549.82-28.35 547.62-27.71L547.62-27.71L547.62-27.71Q545.41-27.07 544.13-26.43L544.13-26.43L542.91-25.79L542.91-4.22L542.91-4.22Q547.46-3.52 549.82-3.52L549.82-3.52L549.82-3.52Q555.01-3.52 557.09-6.46L557.09-6.46L557.09-6.46Q559.17-9.41 559.17-16.06L559.17-16.06L559.17-16.06Q559.17-22.72 557.28-25.54L557.28-25.54L557.28-25.54Q555.39-28.35 551.74-28.35ZM576.64 0L571.84 0L571.84-32L576.64-32L576.64 0ZM576.64-39.23L571.84-39.23L571.84-44.80L576.64-44.80L576.64-39.23Z" fill="url(#editing-gradient-gradient)"/>
</g>
</g>
<style>text {
  font-size: 64px;
  font-family: Arial Black;
  dominant-baseline: central;
  text-anchor: middle;
}</style>
</svg>
