<svg xmlns="http://www.w3.org/2000/svg" viewBox="0 8 64 50" width="128px" height="100px"><linearGradient id="kN7Jz5ygdXHGk_Gt8Nt_ca" x1="8" x2="8" y1="20.375" y2="44.003" gradientUnits="userSpaceOnUse" spreadMethod="reflect"><stop offset="0" stop-color="#6dc7ff"/><stop offset="1" stop-color="#e6abff"/></linearGradient><path fill="url(#kN7Jz5ygdXHGk_Gt8Nt_ca)" d="M10,36c0,0.552-0.448,1-1,1H7c-0.552,0-1-0.448-1-1v-8c0-0.552,0.448-1,1-1h2 c0.552,0,1,0.448,1,1V36z"/><linearGradient id="kN7Jz5ygdXHGk_Gt8Nt_cb" x1="8" x2="8" y1="9.25" y2="52.526" gradientUnits="userSpaceOnUse" spreadMethod="reflect"><stop offset="0" stop-color="#1a6dff"/><stop offset="1" stop-color="#c822ff"/></linearGradient><path fill="url(#kN7Jz5ygdXHGk_Gt8Nt_cb)" d="M9,38H7c-1.103,0-2-0.897-2-2v-8c0-1.103,0.897-2,2-2h2c1.103,0,2,0.897,2,2v8 C11,37.103,10.103,38,9,38z M7,28v8h2v-8H7z"/><linearGradient id="kN7Jz5ygdXHGk_Gt8Nt_cc" x1="16" x2="16" y1="9.25" y2="52.526" gradientUnits="userSpaceOnUse" spreadMethod="reflect"><stop offset="0" stop-color="#1a6dff"/><stop offset="1" stop-color="#c822ff"/></linearGradient><path fill="url(#kN7Jz5ygdXHGk_Gt8Nt_cc)" d="M17,44h-2c-1.103,0-2-0.897-2-2V22c0-1.103,0.897-2,2-2h2c1.103,0,2,0.897,2,2v20 C19,43.103,18.103,44,17,44z M15,22v20h2V22H15z"/><linearGradient id="kN7Jz5ygdXHGk_Gt8Nt_cd" x1="24" x2="24" y1="9.25" y2="52.526" gradientUnits="userSpaceOnUse" spreadMethod="reflect"><stop offset="0" stop-color="#1a6dff"/><stop offset="1" stop-color="#c822ff"/></linearGradient><path fill="url(#kN7Jz5ygdXHGk_Gt8Nt_cd)" d="M25,52h-2c-1.103,0-2-0.897-2-2V14c0-1.103,0.897-2,2-2h2c1.103,0,2,0.897,2,2v36 C27,51.103,26.103,52,25,52z M23,14v36h2V14H23z"/><linearGradient id="kN7Jz5ygdXHGk_Gt8Nt_ce" x1="32" x2="32" y1="20.375" y2="44.003" gradientUnits="userSpaceOnUse" spreadMethod="reflect"><stop offset="0" stop-color="#6dc7ff"/><stop offset="1" stop-color="#e6abff"/></linearGradient><path fill="url(#kN7Jz5ygdXHGk_Gt8Nt_ce)" d="M34,42c0,0.552-0.448,1-1,1h-2c-0.552,0-1-0.448-1-1V22c0-0.552,0.448-1,1-1h2 c0.552,0,1,0.448,1,1V42z"/><linearGradient id="kN7Jz5ygdXHGk_Gt8Nt_cf" x1="32" x2="32" y1="9.25" y2="52.526" gradientUnits="userSpaceOnUse" spreadMethod="reflect"><stop offset="0" stop-color="#1a6dff"/><stop offset="1" stop-color="#c822ff"/></linearGradient><path fill="url(#kN7Jz5ygdXHGk_Gt8Nt_cf)" d="M33,44h-2c-1.103,0-2-0.897-2-2V22c0-1.103,0.897-2,2-2h2c1.103,0,2,0.897,2,2v20 C35,43.103,34.103,44,33,44z M31,22v20h2V22H31z"/><linearGradient id="kN7Jz5ygdXHGk_Gt8Nt_cg" x1="40" x2="40" y1="9.25" y2="52.526" gradientUnits="userSpaceOnUse" spreadMethod="reflect"><stop offset="0" stop-color="#1a6dff"/><stop offset="1" stop-color="#c822ff"/></linearGradient><path fill="url(#kN7Jz5ygdXHGk_Gt8Nt_cg)" d="M41,52h-2c-1.103,0-2-0.897-2-2V14c0-1.103,0.897-2,2-2h2c1.103,0,2,0.897,2,2v36 C43,51.103,42.103,52,41,52z M39,14v36h2V14H39z"/><linearGradient id="kN7Jz5ygdXHGk_Gt8Nt_ch" x1="48" x2="48" y1="9.25" y2="52.526" gradientUnits="userSpaceOnUse" spreadMethod="reflect"><stop offset="0" stop-color="#1a6dff"/><stop offset="1" stop-color="#c822ff"/></linearGradient><path fill="url(#kN7Jz5ygdXHGk_Gt8Nt_ch)" d="M49,44h-2c-1.103,0-2-0.897-2-2V22c0-1.103,0.897-2,2-2h2c1.103,0,2,0.897,2,2v20 C51,43.103,50.103,44,49,44z M47,22v20h2V22H47z"/><linearGradient id="kN7Jz5ygdXHGk_Gt8Nt_ci" x1="56" x2="56" y1="20.375" y2="44.003" gradientUnits="userSpaceOnUse" spreadMethod="reflect"><stop offset="0" stop-color="#6dc7ff"/><stop offset="1" stop-color="#e6abff"/></linearGradient><path fill="url(#kN7Jz5ygdXHGk_Gt8Nt_ci)" d="M58,36c0,0.552-0.448,1-1,1h-2c-0.552,0-1-0.448-1-1v-8c0-0.552,0.448-1,1-1h2 c0.552,0,1,0.448,1,1V36z"/><linearGradient id="kN7Jz5ygdXHGk_Gt8Nt_cj" x1="56" x2="56" y1="9.25" y2="52.526" gradientUnits="userSpaceOnUse" spreadMethod="reflect"><stop offset="0" stop-color="#1a6dff"/><stop offset="1" stop-color="#c822ff"/></linearGradient><path fill="url(#kN7Jz5ygdXHGk_Gt8Nt_cj)" d="M57,38h-2c-1.103,0-2-0.897-2-2v-8c0-1.103,0.897-2,2-2h2c1.103,0,2,0.897,2,2v8 C59,37.103,58.103,38,57,38z M55,28v8h2v-8H55z"/></svg>